# xmcd
#
# Track frame offsets: 
#        150
#        12193
#        25410
#        39083
#        54179
#        65926
#        79211
#        93599
#        107218
#        118794
#        133643
#        148557
#        162279
#        175591
#        190046
#        203818
#        219366
#        233071
#        243789
#        256516
#        269226
#        284835
#        296987
#        308560
#
# Disc length: 4312 seconds
#
# Revision: 0
# Processed by: cddbd v1.5.2PL0 Copyright (c) Steve Scherf et al.
# Submitted via: ExactAudioCopy v0.99pb4
#
DISCID=5d10d618
DTITLE=Tampa Red - Voice Of The Blues
DYEAR=1999
DGENRE=Blues
TTITLE0=Uncle Bud
TTITLE1=But They Got It Fixed Right On
TTITLE2=Grievin' And Worryin'
TTITLE3=Turpentine Blues
TTITLE4=Let Me Play With Your Poodle
TTITLE5=Hard Road Blues
TTITLE6=Boogie Woogie Dance
TTITLE7=Voice Of The Blues
TTITLE8=Give It Up Buddy
TTITLE9=This Ain't No Place For Me
TTITLE10=You Got To Reap What You Sow
TTITLE11=Seminole Blues
TTITLE12=I'll Kill Your Sole
TTITLE13=She Said It
TTITLE14=She Loves Me Just Right
TTITLE15=Bumble Bee
TTITLE16=Taking It And Make My Getaway
TTITLE17=Travel On
TTITLE18=Moanin' Heart Blues
TTITLE19=I Want To Swing
TTITLE20=Prison Bound Blues
TTITLE21=Mean Old Tom Cat [Take 3]
TTITLE22=The Way To Get Low Down
TTITLE23=Western Bound Blues
EXTD=
EXTT0=
EXTT1=
EXTT2=
EXTT3=
EXTT4=
EXTT5=
EXTT6=
EXTT7=
EXTT8=
EXTT9=
EXTT10=
EXTT11=
EXTT12=
EXTT13=
EXTT14=
EXTT15=
EXTT16=
EXTT17=
EXTT18=
EXTT19=
EXTT20=
EXTT21=
EXTT22=
EXTT23=
PLAYORDER=
